<svg width="24" height="24" viewBox="0 0 24 24" fill="none" xmlns="http://www.w3.org/2000/svg">
<path fill-rule="evenodd" clip-rule="evenodd" d="M14 12.5739V22L21.668 17.3379C21.8733 17.2209 22 17.0053 22 16.7727V8L14 12.5739Z" fill="#ED6928"/>
<path fill-rule="evenodd" clip-rule="evenodd" d="M21 7.44855L13.5 12L11.035 10.5039L18.0981 5.68779L21 7.44855ZM6 7.44855L9.82812 9.77174L16.8919 4.95566L13.815 3.08827C13.6206 2.97058 13.3794 2.97058 13.185 3.08827L6 7.44855Z" fill="#ED6928"/>
<path fill-rule="evenodd" clip-rule="evenodd" d="M5.5 12.1988V8L13 12.5739V22L7.9625 18.7329H9.25C9.595 18.7329 9.875 18.4402 9.875 18.0795C9.875 17.7188 9.595 17.4261 9.25 17.4261H3.4475L3.31125 17.3379C3.11875 17.2209 3 17.0053 3 16.7727V16.1193H11.125C11.47 16.1193 11.75 15.8266 11.75 15.4659C11.75 15.1052 11.47 14.8125 11.125 14.8125H3V13.5056H9.25C9.595 13.5056 9.875 13.2129 9.875 12.8522C9.875 12.4916 9.595 12.1988 9.25 12.1988H5.5Z" fill="#ED6928"/>
</svg>
