<svg width="175" height="63" viewBox="0 0 175 63" fill="none" xmlns="http://www.w3.org/2000/svg">
<path d="M91 22.2496V0L80 10.1653V32L91 22.2496Z" fill="#1D1D1B"/>
<path d="M80 36.798V43H91V27L80 36.798Z" fill="#1D1D1B"/>
<path d="M45 11.0882L56.3244 1H82L70.6756 11.0882H68.3272V43H56.9506V11.0882H45Z" fill="#1D1D1B"/>
<path d="M120.5 11.0882C117.493 11.0882 114.849 12.1691 112.62 14.3309C110.391 16.4926 109.25 19.0662 109.25 22.0515C109.25 24.9338 110.391 27.4559 112.672 29.6176C114.953 31.7794 117.545 32.8603 120.5 32.8603V16.9044H131.75V43H119.204C113.553 43 108.628 40.8897 104.377 36.7206C100.126 32.5515 98 27.6618 98 22.0515C98 16.4412 100.126 11.5515 104.377 7.33088C108.628 3.11029 113.553 1 119.204 1H143L131.75 11.0882H120.5Z" fill="#1D1D1B"/>
<path d="M141 11.1542L152.213 1H157.277C163.064 1 167.301 2.08795 169.988 4.31566C172.881 6.69879 174.328 10.4807 174.328 15.7651C174.328 17.6819 173.76 19.3916 172.571 20.894C172.055 21.5675 170.918 22.6554 169.264 24.106L175 29.1313V44L152.885 22.8626H157.277C158.878 22.8626 160.274 22.3446 161.41 21.2566C162.547 20.1687 163.167 18.7699 163.167 17.0602C163.167 15.0916 162.805 13.641 162.082 12.7602C161.204 11.6723 159.602 11.1542 157.277 11.1542H152.264V43.2747H141.052V11.1542H141Z" fill="#1D1D1B"/>
<path d="M56.9506 24H68.275V11.182H70.6234L82 1H56.3766L45 11.182H56.9506V24Z" fill="#1D1D1B"/>
<path d="M131 17H120V24H131V17Z" fill="#1D1D1B"/>
<path d="M109.406 24C109.302 23.3798 109.25 22.8112 109.25 22.1393C109.25 19.1933 110.391 16.609 112.62 14.3865C114.849 12.2157 117.493 11.1303 120.5 11.1303H131.75L143 1H119.204C113.553 1 108.628 3.1191 104.377 7.35731C100.126 11.5955 98 16.5573 98 22.1393C98 22.7596 98.0518 23.3798 98.1037 24H109.406Z" fill="#1D1D1B"/>
<path d="M152.439 24V11.1592H157.552C159.924 11.1592 161.558 11.6749 162.454 12.7578C163.192 13.6345 163.561 15.0785 163.561 17.0381C163.561 18.7399 162.981 20.1323 161.769 21.2153C160.609 22.2982 159.186 22.8139 157.552 22.8139H153.071L154.336 23.9484H169.887C171.574 22.5045 172.681 21.4731 173.208 20.8027C174.42 19.3072 175 17.5538 175 15.6973C175 10.4888 173.524 6.67265 170.572 4.30045C167.831 2.08296 163.509 1 157.605 1H152.439L141 11.1076V23.9484H152.439V24Z" fill="#1D1D1B"/>
<path d="M91 22.1897V0L80 10.1379V24H88.9312L91 22.1897Z" fill="#1D1D1B"/>
<path d="M160.071 59.983C160.714 60.661 161.571 61 162.571 61C163.643 61 164.429 60.661 165.071 59.983C165.714 59.3051 166 58.3729 166 57.2712L166 51L163.929 51L163.929 57.2712C163.929 57.7797 163.786 58.2034 163.571 58.4576C163.286 58.7119 162.929 58.8814 162.5 58.8814C162.071 58.8814 161.714 58.7119 161.429 58.4576C161.143 58.2034 161.071 57.7797 161.071 57.2712L161.071 51L159 51L159 57.2712C159.071 58.3729 159.429 59.3051 160.071 59.983Z" fill="#ED6928"/>
<path d="M170.953 61L170.953 58.2069L172.349 58.2069C173.116 58.2069 173.744 57.8966 174.233 57.3535C174.721 56.7328 175 56.0345 175 55.1034C175 54.1724 174.721 53.4741 174.233 52.8534C173.744 52.3103 173.116 52 172.349 52L169 52L169 61L170.953 61ZM170.953 56.2672L170.953 53.7845L172 53.7845C172.349 53.7845 172.558 53.8621 172.767 54.0948C172.907 54.3276 173.047 54.6379 173.047 54.9483C173.047 55.3362 172.977 55.6465 172.767 55.8793C172.558 56.1121 172.349 56.1897 172 56.1897L170.953 56.1897L170.953 56.2672Z" fill="#ED6928"/>
<path d="M53 53.1368L53 51L45 51L45 53.1368L47.88 53.1368L47.88 61L50.12 61L50.12 53.1368L53 53.1368Z" fill="#ED6928"/>
<path d="M158 55.9167C158 54.5 157.557 53.3333 156.746 52.4167C155.934 51.5 154.828 51 153.5 51C152.172 51 151.139 51.5 150.254 52.4167C149.443 53.3333 149 54.5833 149 55.9167C149 57.3333 149.443 58.5833 150.254 59.5833C151.066 60.5833 152.172 61 153.5 61C154.828 61 155.861 60.5 156.746 59.5833C157.631 58.5833 158 57.3333 158 55.9167ZM151.877 58C151.434 57.4167 151.213 56.75 151.213 55.9167C151.213 55.0833 151.434 54.4167 151.877 53.9167C152.32 53.4167 152.836 53.0833 153.574 53.0833C154.238 53.0833 154.828 53.3333 155.27 53.9167C155.713 54.4167 155.934 55.0833 155.934 55.9167C155.934 56.75 155.713 57.4167 155.27 58C154.828 58.5833 154.311 58.8333 153.574 58.8333C152.836 58.8333 152.32 58.5 151.877 58Z" fill="#ED6928"/>
<path d="M55.24 58.8632L55.24 56.9829L58.12 56.9829L58.12 54.9316L55.24 54.9316L55.24 53.1368L58.84 53.1368L58.84 51L53 51L53 61L59 61L59 58.8632L55.24 58.8632Z" fill="#ED6928"/>
<path d="M71.2626 51L69 51L69 61L71.2626 61L71.2626 57.0684L74.6566 57.0684L74.6566 61L77 61L77 51L74.6566 51L74.6566 55.0171L71.2626 55.0171L71.2626 51Z" fill="#ED6928"/>
<path d="M100 58.0085C100 57.8376 99.9286 57.5812 99.8571 57.3248C99.7857 57.0684 99.7857 56.812 99.7143 56.641L98.2143 51L96 51L98.9286 61L101.071 61L104 51L101.857 51L100.357 56.641C100.214 57.0684 100.143 57.5812 100.071 58.265L100 58.0085Z" fill="#ED6928"/>
<path d="M145.305 61L148 61L146.063 57.4957C145.895 57.2393 145.811 56.9829 145.726 56.8974C146.232 56.641 146.568 56.2991 146.821 55.7863C147.074 55.2735 147.242 54.7607 147.242 54.1624C147.242 53.4786 147.074 52.8803 146.737 52.3675C146.4 51.8547 145.979 51.5128 145.389 51.2564C144.968 51.0855 144.379 51 143.453 51L140 51L140 61L142.442 61L142.442 57.6667L143.537 57.6667L145.305 61ZM142.442 55.5299L142.442 53.1368L143.284 53.1368C143.705 53.1368 143.958 53.2222 144.211 53.3077C144.632 53.4786 144.8 53.8205 144.8 54.3333C144.8 54.7607 144.716 55.0171 144.463 55.2735C144.211 55.5299 143.958 55.6154 143.537 55.6154L142.442 55.6154L142.442 55.5299Z" fill="#ED6928"/>
<path d="M85 61L85 51L83 51L83 61L85 61Z" fill="#ED6928"/>
<path d="M66.963 57.75C66.2222 58.5833 65.4815 58.9167 64.6667 58.9167C63.8518 58.9167 63.2593 58.6667 62.8889 58.0833C62.4444 57.5 62.2222 56.8333 62.2222 56C62.2222 55.25 62.4444 54.5833 62.8148 54C63.2593 53.5 63.8518 53.1667 64.6667 53.1667C65.037 53.1667 65.4074 53.25 65.7778 53.4167C66.1481 53.5833 66.5185 53.8333 66.8148 54.1667L67.7778 52.3333C67.3333 51.9167 66.8889 51.5 66.2963 51.3333C65.7037 51.0833 65.1111 51 64.5185 51C63.1852 51 62.1482 51.5 61.2593 52.4167C60.4445 53.3333 60 54.5833 60 56C60 57.5 60.4445 58.6667 61.2593 59.5833C62.0741 60.5 63.1852 61 64.5185 61C65.9259 61 67.037 60.4167 68 59.3333L66.963 57.75Z" fill="#ED6928"/>
<path d="M110.84 51L105 51L105 61L111 61L111 58.8632L107.32 58.8632L107.32 56.9829L110.12 56.9829L110.12 54.9316L107.32 54.9316L107.32 53.1368L110.84 53.1368L110.84 51Z" fill="#ED6928"/>
<path d="M91.9286 57.1017C91.8571 56.9322 91.7857 56.678 91.6429 56.4237C91.5 56.1695 91.4286 55.9153 91.3571 55.7458L89.0714 51.1695L87 51.1695L87 61L89 61L89 56.4237C89 56 89 55.4068 88.9286 54.7288L89 54.9831C89.0714 55.1525 89.1428 55.4068 89.2857 55.661C89.4286 55.9153 89.5 56.1695 89.5714 56.339L91.8571 60.9152L94 60.9152L94 51L91.9286 51L91.9286 55.5763C91.9286 56 91.9286 56.5932 92 57.2712L91.9286 57.1017Z" fill="#ED6928"/>
<path d="M126 51L118 51L118 53.1368L120.88 53.1368L120.88 61L123.12 61L123.12 53.1368L126 53.1368L126 51Z" fill="#ED6928"/>
<path d="M137.071 60.25L137.071 60.6667L137.071 60.9167L139 60.9167L139 55.4167L135.625 55.4167L135.625 57.4167L136.991 57.4167L136.991 58.1667C136.429 58.6667 135.786 58.8333 135.063 58.8333C134.339 58.8333 133.696 58.5833 133.134 58C132.652 57.5 132.33 56.75 132.33 55.8333C132.33 55.0833 132.571 54.4167 133.054 53.8333C133.536 53.3333 134.179 53.0833 135.143 53.0833C135.545 53.0833 135.946 53.1667 136.348 53.3333C136.75 53.5 137.152 53.75 137.393 54L138.518 52.25C137.554 51.4167 136.348 51 134.902 51C133.455 51 132.33 51.5 131.366 52.4167C130.402 53.3333 130 54.5833 130 56C130 57.5 130.482 58.75 131.366 59.6667C132.25 60.5833 133.375 61 134.58 61C135.062 61 135.464 60.9167 135.946 60.75C136.429 60.6667 136.83 60.5 137.071 60.25Z" fill="#ED6928"/>
<path d="M118 57.9748C118 57.4706 117.929 57.0504 117.714 56.7143C117.5 56.3781 117.286 56.042 117 55.8739C116.714 55.7059 116.429 55.4538 116.143 55.2857C115.857 55.1176 115.5 54.9496 115.286 54.8655C115 54.7815 114.786 54.6134 114.571 54.4454C114.357 54.2773 114.286 54.1092 114.286 53.8571C114.286 53.6891 114.357 53.437 114.5 53.3529C114.643 53.1849 114.857 53.1849 115.143 53.1849C115.429 53.1849 115.786 53.2689 116.143 53.437C116.5 53.605 116.786 53.7731 117 54.0252L117.857 52.0924C117.143 51.3361 116.286 51 115.214 51C114.357 51 113.571 51.2521 113.071 51.8403C112.5 52.4286 112.214 53.1008 112.214 54.0252C112.214 54.5294 112.286 54.9496 112.5 55.2857C112.714 55.6219 112.929 55.958 113.214 56.1261C113.5 56.3782 113.786 56.5462 114.071 56.7143C114.357 56.8824 114.714 57.0504 114.929 57.1345C115.214 57.2185 115.429 57.3866 115.643 57.5546C115.857 57.7227 115.929 57.8908 115.929 58.1429C115.929 58.3109 115.857 58.479 115.714 58.6471C115.571 58.8151 115.357 58.8151 115.071 58.8151C114.714 58.8151 114.357 58.7311 114 58.479C113.643 58.3109 113.286 58.0588 113.071 57.8067L112 59.6555C112.357 60.0756 112.857 60.4958 113.357 60.6639C113.857 60.916 114.429 61 115 61C115.929 61 116.643 60.7479 117.143 60.1597C117.786 59.5714 118 58.8992 118 57.9748Z" fill="#ED6928"/>
<path d="M24.9585 6C24.2949 6.18182 24 6.36364 24 6.36364C25.7327 6.48485 27.5023 6.60606 29.235 6.72727C29.8249 7.0303 30.4147 7.33333 30.9677 7.63636C31.0415 7.63636 31.0783 7.66667 31.1521 7.66667C31.447 7.78788 31.7051 7.87879 32 8V7.63636C31.1152 7.18182 30.1935 6.72727 29.3088 6.27273C27.871 6.18182 26.4332 6.09091 24.9585 6Z" fill="white"/>
<path d="M28.9726 51.8125C29.3014 51.55 29.6712 51.2875 30 51.025C29.4247 49.9 28.8493 48.7375 28.274 47.6125C28.1096 47.0875 27.9863 46.525 27.8219 46C27.5342 47.2375 27.2877 48.475 27 49.75C27.2466 50.5 27.4932 51.25 27.7397 52C28.1507 51.925 28.5616 51.8875 28.9726 51.8125Z" fill="white"/>
<path d="M32 50.9565V49.6956L31.6786 49C31.5 49.5217 31.3214 50.0435 31.1429 50.5652C30.9286 50.0435 30.75 49.5217 30.5357 49C30.3571 49.3043 30.1786 49.6087 30 49.913C30 50.2609 30.0357 50.6522 30.0357 51L32 50.9565Z" fill="white"/>
<path d="M23.3871 18.1368L22.3387 19.3053L22.0565 17.4421C21.4516 17.2842 20.8468 17.1263 20.2823 17C20.2016 17.2211 20.121 17.4737 20 17.6947C20.2419 18.2632 20.4839 18.8 20.7258 19.3684C21.7339 19.5895 22.7419 19.7789 23.7097 20C24.1532 19.8105 24.5565 19.5895 25 19.4C24.4758 18.9895 23.9113 18.5789 23.3871 18.1368Z" fill="white"/>
<path d="M30.2574 38.8846C30.5347 38.5 30.7723 38.0769 31.0495 37.6923C31.2475 38.0769 31.4059 38.4615 31.604 38.8462C31.7228 38.6154 31.8416 38.3846 32 38.1538V37.1154C31.4851 37.0769 30.9307 37.0385 30.4158 37C29.6238 37.1923 28.7921 37.3462 28 37.5385C28.1188 38.3462 28.198 39.1923 28.3168 40C28.7525 39.2692 29.2277 38.5 29.6634 37.7692C29.8614 38.1923 30.0594 38.5385 30.2574 38.8846Z" fill="white"/>
<path d="M12.6667 14L14 10.8875C13.1515 10.0032 12.3434 9.11897 11.4949 8.23473C11.1717 6.50161 10.8081 4.73312 10.4848 3C10.3232 4.8746 10.1616 6.7492 10 8.65916C10.5253 9.86174 11.0505 11.0643 11.5354 12.2669C11.899 12.8682 12.303 13.4341 12.6667 14Z" fill="white"/>
<path d="M6.80369 44.7778C7.50461 43.3704 8.20553 41.963 8.90646 40.5556C9.20158 43.2222 9.45982 45.8889 9.75494 48.5185C11.0092 49.3704 12.2266 50.2222 13.4809 51.0741C14.4401 49.6667 15.3623 48.2963 16.3215 46.8889C17.6864 47.1852 19.0145 47.4815 20.3794 47.7778C20.9328 48.7407 21.4862 49.7037 22.0395 50.6667C22.9249 52.5556 23.8103 54.4074 24.6957 56.2963C25.8393 57.2963 26.946 58.2593 28.0896 59.2593C29.3808 59.5185 30.6719 59.7407 32 60V52.4815C31.1146 52.5556 30.2292 52.6296 29.3439 52.7407C28.7167 53.2963 28.0896 53.8148 27.4993 54.3704C26.7246 53.5926 25.913 52.8148 25.1383 52.037C24.917 50.2222 24.6957 48.4074 24.5112 46.5556C24.0316 45.7037 23.5889 44.8519 23.1094 44C22.9249 44.2222 22.7773 44.4815 22.5929 44.7037C22.2978 44.8148 21.9657 44.8889 21.6706 45C21.6706 44.4815 21.7075 43.9259 21.7075 43.4074C21.7075 42.963 21.6706 42.5185 21.6706 42.0741L20.7484 42.5556C20.7115 41.5556 20.6377 40.5926 20.6008 39.5926C19.4941 38.8519 18.3505 38.1111 17.2437 37.3704C16.8748 38.8889 16.5059 40.3704 16.137 41.8889C15.3992 40.4815 14.6245 39.0741 13.8867 37.6296C13.6285 36.4444 13.3333 35.2963 13.0751 34.1111C12.7431 34.4074 12.448 34.7407 12.1159 35.037C11.7101 35.7037 11.2675 36.3333 10.8617 37C10.4559 34.3333 10.2345 32.3704 10.2345 32.3704C10.2345 32.3333 10.2345 32.2963 10.2345 32.2963C10.2345 32.2593 10.6403 28.5926 10.751 27.6667C10.751 27.6667 10.419 27.8519 9.71805 28.2593C9.16469 28.7407 8.57444 29.1852 8.02108 29.6667C8.38999 28.037 8.722 26.4074 9.09091 24.7407C9.86561 23.1481 10.6403 21.5926 11.415 20C9.86561 21.4815 8.3531 22.963 6.84058 24.4074C5.88142 28.3333 4.92227 32.2222 4 36.1481C4.62714 35.4074 5.21739 34.7037 5.84453 33.963C5.80764 35.3333 5.77075 36.7037 5.73386 38.1111C6.06588 40.3333 6.43478 42.5556 6.80369 44.7778Z" fill="white"/>
<path d="M25.5833 38C25.0417 38.0383 24.5417 38.1148 24 38.153C24.0417 39.071 24.0833 40.0273 24.125 40.9454C24.9583 42.2842 25.7917 43.6612 26.625 45C26.5833 44.3115 26.5 43.623 26.4583 42.9344C26.625 41.4809 26.8333 40.0273 27 38.612C26.5417 38.4208 26.0417 38.2295 25.5833 38Z" fill="white"/>
<path d="M24.2371 35.9145C23.68 35.9145 23.16 35.9145 22.6029 35.9145C23.2714 36.2763 23.9029 36.6382 24.5714 37C25.4257 36.8914 26.28 36.8191 27.0971 36.7105C27.7657 36.4572 28.4343 36.2039 29.14 35.9507C30.1057 35.8783 31.0343 35.8421 32 35.7697C31.7029 34.7928 31.3686 33.8158 31.0714 32.875C30.8857 32.5855 30.7 32.2599 30.5143 31.9704C29.2143 31.0296 27.9514 30.0888 26.6514 29.1118C25.24 28.0263 24.3486 27.0855 22.9743 26C22.7514 26.0724 22.0086 26.0362 21.7857 26.1086C21.3771 26.5066 21.0057 26.8684 20.5971 27.2664C20.6343 27.7368 20.6714 28.2072 20.7086 28.6776C20.7457 28.6776 23.1229 30.0164 23.16 30.0164C23.1971 30.0164 25.3886 31.2467 25.4257 31.2467C24.2743 30.9934 23.16 30.7763 22.0086 30.523C21.3771 30.1612 20.7457 29.8355 20.1514 29.4737C19.9286 29.2928 19.6686 29.148 19.4457 28.9671C19.2971 29.3651 19.1486 29.7993 19 30.1974C19.1857 30.7039 19.3714 31.1743 19.5571 31.6809C20.6343 31.9704 21.7486 32.2961 22.8257 32.5855C24.0886 32.8388 25.3143 33.0559 26.5771 33.3092C25.6486 33.3816 24.6829 33.4901 23.7543 33.5625C22.5286 33.273 21.2657 32.9474 20.04 32.6579C20.2257 33.1645 20.4114 33.6349 20.5971 34.1414C21.3029 34.4671 22.0086 34.8289 22.7143 35.1546C23.6429 35.1184 24.5714 35.0822 25.5 35.0461C26.3914 34.9375 27.2829 34.8289 28.1743 34.7204C27.5057 35.0099 26.8371 35.2993 26.1686 35.5888C25.5371 35.7336 24.9057 35.8059 24.2371 35.9145Z" fill="white"/>
<path d="M15 24.5375C15.4112 26.0345 15.8224 27.5314 16.1963 29.0284C16.6449 29.6856 17.0935 30.3428 17.5421 31C17.4673 30.1602 17.4299 29.357 17.3551 28.5172C17.729 27.86 18.0654 27.2028 18.4393 26.5456C18.1402 25.5963 17.8411 24.6105 17.5421 23.6613C17.3178 22.4929 17.0935 21.3245 16.8692 20.1562C17.2056 19.2799 17.5794 18.4402 17.9159 17.5639C17.9533 16.6146 17.9907 15.6653 17.9907 14.6795C18.3271 14.3874 18.6636 14.0953 19 13.8032C18.4393 13.5477 17.8785 13.2556 17.3178 13C17.0187 13.6572 16.7196 14.2779 16.4206 14.9351C16.757 15.9209 17.0935 16.9432 17.4299 17.929C17.1682 18.1846 16.9439 18.4402 16.6822 18.6957C16.1215 20.6673 15.5607 22.6024 15 24.5375Z" fill="white"/>
<path d="M22 8.58537C24.2302 8.76829 26.4245 8.95122 28.6547 9.13415C29.6259 9.71951 30.5971 10.3049 31.5683 10.8902C31.7122 10.9268 31.8561 10.9634 32 11V9.93902C30.9928 9.39024 29.9856 8.80488 28.9784 8.2561C27.0719 8.18293 25.1295 8.07317 23.223 8C22.8273 8.18293 22.3957 8.40244 22 8.58537Z" fill="white"/>
<path d="M28.1677 12.3962C29.4452 13.2642 30.7226 14.1321 32 15V13.9057C30.7581 13.0755 29.5161 12.283 28.2742 11.4528C26.3935 11.3019 24.5129 11.1509 22.6323 11C21.5677 11.4906 21 11.7547 21 11.7547C21 11.7547 24.7968 12.0943 28.1677 12.3962Z" fill="white"/>
<path d="M19.4622 14C19.32 14.2814 19.1778 14.5276 19 14.809C19 14.9497 19 15.1256 19 15.2663C20.9911 16.0402 22.9822 16.8141 24.9733 17.5879C24.9733 17.5879 24.9733 17.6231 25.0089 17.6231C25.0089 17.6231 25.0444 17.6231 25.0444 17.6583C25.6844 18.7839 26.3244 19.8744 27 21C26.7511 19.9799 26.5022 18.9598 26.2533 17.9397C24.4044 16.7789 22.5911 15.5829 20.7422 14.4221C20.3156 14.2814 19.8889 14.1407 19.4622 14Z" fill="white"/>
<path d="M18 19.3378C18.4667 19.9054 18.9333 20.4324 19.4 21C20.2667 20.9595 21.1333 20.9595 22 20.9189C21.4333 20.7568 20.8667 20.5541 20.3 20.3919C20.1 20.1892 19.8667 19.9865 19.6667 19.7838C19.4 19.1757 19.1333 18.6081 18.8667 18C18.8333 18.0405 18.8 18.0811 18.7333 18.1216C18.5 18.527 18.2667 18.9324 18 19.3378Z" fill="white"/>
<path d="M26.1456 20.5638C25.5049 19.3826 24.8641 18.2383 24.1877 17.057C24.1877 17.057 24.1521 17.057 24.1521 17.0201C24.1521 17.0201 24.1521 16.9832 24.1165 16.9832C22.123 16.1711 20.1294 15.3591 18.1359 14.547C18.1359 14.3993 18.1359 14.2148 18.1359 14.0671C18.2783 13.7718 18.4207 13.5134 18.5987 13.2181L19.1327 12C18.7767 12.3322 18.3851 12.6644 18.0291 13.0336C17.7087 13.3289 17.3883 13.6242 17.068 13.9195C17.0324 14.8792 16.9968 15.8389 16.9968 16.8356C16.6764 17.7215 16.3204 18.5705 16 19.4564C16.2136 20.6376 16.4272 21.8188 16.6408 23C16.6408 22.7047 16.6408 22.4463 16.6764 22.151C16.8544 21.5973 17.0324 20.9698 17.3172 20.3054C17.5307 19.7886 17.7443 19.3087 17.9579 18.8658C18.2427 18.4966 18.4919 18.1275 18.7767 17.7584C18.8123 17.7215 18.8479 17.6846 18.9191 17.6477C19.2039 18.2013 19.4887 18.7181 19.7735 19.2718C19.9871 19.4564 20.2362 19.6409 20.4498 19.8255C21.055 19.9732 21.6602 20.1577 22.2654 20.3054C21.9806 20.453 21.6602 20.6007 21.3754 20.7483C21.1974 21.1544 20.9838 21.5604 20.8058 21.9664C21.055 21.745 21.2686 21.5235 21.5178 21.302C22.6926 21.0805 23.8673 20.8591 25.0421 20.6745C25.6828 21.1174 26.3592 21.5604 27 21.9664C26.644 21.4866 26.3948 21.0067 26.1456 20.5638ZM23.0485 19.5671C22.1586 19.3087 21.2686 19.0872 20.4142 18.8289C20.2006 18.1644 19.9871 17.5369 19.7735 16.8725C19.8447 16.6141 19.9159 16.3188 20.0227 16.0604C20.5566 16.245 21.0906 16.4295 21.589 16.5772L21.8382 18.755L22.7638 17.3893C23.2265 17.8691 23.7249 18.349 24.1877 18.8658C23.8317 19.0872 23.4401 19.3456 23.0485 19.5671Z" fill="#1D1D1B"/>
<path d="M25.2905 1.14211C23.7599 1.54737 22.2658 1.95263 20.7353 2.35789C19.6785 2.8 18.5852 3.24211 17.5284 3.68421C14.5402 2.43158 11.5155 1.21579 8.52733 0C8.2358 2.65263 7.90782 5.34211 7.61629 7.99474C8.01715 9.76316 8.41801 11.5316 8.81886 13.3368C7.68917 14.2211 6.52304 15.0684 5.39335 15.9526C4.48232 17.6474 3.57128 19.3421 2.66024 21.0737C2.91533 21.2947 3.20686 21.5158 3.49839 21.7368C2.40514 23.5053 1.3119 25.2737 0.21865 27.0789C0.510182 28.0737 0.801715 29.0684 1.09325 30.0632C0.728832 31.5368 0.364416 33.0105 0 34.521C0.583065 35.3684 1.16613 36.2158 1.7492 37.0632C2.07717 39.3842 2.3687 41.7053 2.69668 43.9895C4.26367 46.4579 5.83065 48.9263 7.43408 51.3579C8.74598 52.021 10.0579 52.6474 11.3698 53.3105C12.6817 53.9737 13.9936 54.6 15.3055 55.2632C15.6334 54.4158 15.9614 53.5684 16.2894 52.7211C16.6174 51.8737 16.9453 51.0263 17.2733 50.1789C17.7471 50.1789 18.2208 50.1789 18.6945 50.1789C19.3505 51.0263 19.97 51.8737 20.6259 52.7211C21.3912 54.7474 22.1565 56.7737 22.9218 58.8368C24.343 59.8316 25.7278 60.7895 27.149 61.7842C29.4448 62.1895 31.7406 62.5947 34 63C34 42.5895 34 22.2158 34 1.80526C31.0847 1.54737 28.1693 1.36316 25.2905 1.14211ZM31.7042 60.0526C30.4287 59.7947 29.1533 59.5737 27.8414 59.3158C26.7117 58.3211 25.6184 57.3632 24.4887 56.3684C23.6141 54.4895 22.7395 52.6474 21.865 50.7684C21.3183 49.8105 20.7717 48.8526 20.2251 47.8947C18.8767 47.6 17.5648 47.3053 16.2165 47.0105C15.269 48.4105 14.358 49.7737 13.4105 51.1737C12.1715 50.3263 10.9689 49.4789 9.7299 48.6316C9.43837 45.9789 9.18328 43.3263 8.89175 40.7105C8.19936 42.1105 7.50697 43.5105 6.81458 44.9105C6.45016 42.7 6.08574 40.4895 5.72133 38.2789C5.75777 36.9158 5.79421 35.5526 5.83065 34.1526C5.21115 34.8895 4.62808 35.5895 4.00857 36.3263C4.95606 32.4211 5.90354 28.5526 6.81458 24.6474C8.30868 23.1737 9.80279 21.7368 11.2969 20.2632C10.5316 21.8474 9.76635 23.3947 9.00107 24.9789C8.63666 26.6 8.30868 28.2211 7.94427 29.8789C8.49089 29.4 9.07395 28.9579 9.62058 28.4789C10.313 28.0737 10.6409 27.8895 10.6409 27.8895C10.6045 28.8105 10.2036 32.4579 10.2036 32.4947C10.2036 32.4947 10.2036 32.5316 10.2036 32.5684C10.2036 32.6053 10.4223 34.5579 10.7867 37.2105C11.1876 36.5474 11.6249 35.9211 12.0257 35.2579C12.3537 34.9632 12.6452 34.6316 12.9732 34.3368C13.2283 35.5158 13.5198 36.6579 13.7749 37.8368C14.5038 39.2368 15.269 40.6368 15.9979 42.0737C16.3623 40.5632 16.7267 39.0895 17.0911 37.5789C18.1844 38.3158 19.314 39.0526 20.4073 39.7895C20.4437 40.7842 20.5166 41.7421 20.5531 42.7368L21.4641 42.2579C21.4641 42.7 21.5005 43.1421 21.5005 43.5842C21.5005 44.1 21.4641 44.6526 21.4641 45.1684C21.7556 45.0579 22.0836 44.9842 22.3751 44.8737C22.5573 44.6526 22.7031 44.3947 22.8853 44.1737C23.3591 45.0211 23.7964 45.8684 24.2701 46.7158C24.4887 48.5211 24.7074 50.3263 24.8896 52.1684C25.6549 52.9421 26.4566 53.7158 27.2219 54.4895C27.8414 53.9368 28.4609 53.4211 29.0439 52.8684C29.9185 52.7947 30.7931 52.7211 31.6677 52.6105V60.0526H31.7042ZM26.1651 42.9579C26.2015 43.6211 26.2744 44.2842 26.3108 44.9474C25.582 43.6579 24.8532 42.3316 24.1243 41.0421C24.0879 40.1579 24.0514 39.2368 24.015 38.3526C24.4887 38.3158 24.926 38.2421 25.3998 38.2053C25.8006 38.3895 26.2379 38.5737 26.6388 38.7579C26.493 40.1947 26.3108 41.5579 26.1651 42.9579ZM27.3312 46.0526C27.477 46.5684 27.5863 47.1211 27.732 47.6368C28.2422 48.7421 28.7524 49.8842 29.2626 50.9895C28.9711 51.2474 28.6431 51.5053 28.3516 51.7632C27.9871 51.8 27.6227 51.8737 27.2947 51.9105C27.0761 51.1737 26.8574 50.4368 26.6388 49.7C26.8574 48.4842 27.1125 47.2684 27.3312 46.0526ZM31.7042 50.9526H29.6999C29.6999 50.6579 29.6635 50.3263 29.6635 50.0316C29.8457 49.7737 30.0279 49.5158 30.2101 49.2579C30.4287 49.7 30.6109 50.1421 30.8296 50.5842C31.0118 50.1421 31.194 49.7 31.3762 49.2579L31.7042 49.8474V50.9526ZM31.7042 38.5368C31.5949 38.7579 31.4855 38.9789 31.3398 39.2C31.1576 38.8316 31.0118 38.4632 30.8296 38.0947C30.5745 38.4632 30.3558 38.8684 30.1007 39.2368C29.9185 38.9053 29.7363 38.5368 29.5541 38.2053C29.1533 38.9053 28.716 39.6421 28.3151 40.3421C28.2058 39.5684 28.1329 38.7579 28.0236 37.9842C28.7524 37.8 29.5177 37.6526 30.2465 37.4684C30.7203 37.5053 31.2304 37.5421 31.7042 37.5789V38.5368ZM31.7042 6.00526C30.3923 5.67368 29.0439 5.37895 27.732 5.04737C26.4566 5.30526 25.2176 5.56316 23.9421 5.82105C25.6184 5.96842 27.3312 6.07895 29.0075 6.22632C29.8821 6.77895 30.7931 7.33158 31.6677 7.88421V8.32632C31.3762 8.17895 31.1211 8.06842 30.8296 7.92105C30.7567 7.92105 30.7203 7.88421 30.6474 7.88421C29.299 7.62632 27.9507 7.40526 26.6024 7.14737C24.9989 7.47895 23.3955 7.81053 21.7921 8.14211C22.12 8.17895 22.4845 8.17895 22.8124 8.21579C24.7438 8.28947 26.7117 8.4 28.6431 8.47368C29.6635 9.02632 30.6838 9.61579 31.7042 10.1684V11.2368C29.8092 10.7947 27.9143 10.3158 26.0557 9.87368C24.2701 10.2421 22.4845 10.6105 20.6988 10.9789C21.1726 11.0158 21.6463 11.0526 22.12 11.0895C24.0514 11.2368 25.9828 11.3842 27.9143 11.5316C29.1897 12.3421 30.4652 13.1158 31.7406 13.9263V14.9947V29.4C31.3762 29.3632 31.0482 29.3263 30.6838 29.2895C30.1007 28.8842 29.5541 28.4789 28.9711 28.0737C28.5338 28.3684 28.0965 28.6632 27.6227 28.9211C27.477 28.8105 27.2947 28.7 27.149 28.5895C26.9668 28.0737 26.7481 27.5947 26.5659 27.0789C26.6388 26.2316 26.7481 25.4211 26.821 24.5737C26.4201 25.5316 26.0557 26.4895 25.6549 27.4474C25.91 28.1105 26.1286 28.7368 26.3837 29.4C26.4202 29.4368 26.4201 29.4368 26.4566 29.4737C27.732 30.4316 28.9711 31.3895 30.2465 32.3842C30.4287 32.6789 30.6109 33.0105 30.7931 33.3053C31.0847 34.3 31.4126 35.2947 31.7042 36.2526C30.7567 36.3263 29.8457 36.3632 28.8982 36.4368C28.2422 36.6947 27.5863 36.9526 26.8939 37.2105C26.0557 37.3211 25.2176 37.3947 24.4159 37.5053C23.7599 37.1368 23.1404 36.7684 22.4845 36.4C23.0311 36.4 23.5413 36.4 24.0879 36.4C24.7074 36.3263 25.3633 36.2158 25.9829 36.1421C26.6388 35.8474 27.2947 35.5526 27.9507 35.2579C27.0761 35.3684 26.2015 35.4789 25.3269 35.5895C24.4159 35.6263 23.5048 35.6632 22.5938 35.7C21.9014 35.3684 21.209 35 20.5166 34.6684C20.3344 34.1526 20.1522 33.6737 19.97 33.1579C21.1726 33.4526 22.4116 33.7842 23.6141 34.0789C24.5252 34.0053 25.4727 33.8947 26.3837 33.8211C25.1447 33.5632 23.9421 33.3421 22.7031 33.0842C21.6463 32.7895 20.5531 32.4579 19.4962 32.1632C19.314 31.6474 19.1318 31.1684 18.9496 30.6526C19.0954 30.2474 19.2412 29.8053 19.3869 29.4C19.6056 29.5842 19.8607 29.7316 20.0793 29.9158C20.6988 30.2842 21.3183 30.6158 21.9014 30.9842C23.0311 31.2421 24.1243 31.4632 25.254 31.7211C25.2176 31.7211 23.0675 30.4684 23.0311 30.4684C22.9946 30.4684 20.6624 29.1053 20.6259 29.1053C20.5895 28.6263 20.5531 28.1474 20.5166 27.6684C20.9175 27.2632 21.2819 26.8947 21.6827 26.4895C21.9014 26.4158 22.6302 26.4526 22.8489 26.3789C22.8489 26.3789 22.8489 26.3789 22.8853 26.4158C23.5048 26.1579 24.015 25.9368 24.015 25.9368C24.015 25.9368 23.4684 25.8263 23.2497 25.7895C22.9946 25.7526 22.6667 25.7526 22.6667 25.7526C23.0311 25.3105 23.3591 24.8316 23.7235 24.3895C24.4159 24.0211 25.0718 23.6526 25.7642 23.2842C24.6345 23.5421 23.5048 23.8 22.4116 24.0579C21.9743 24.5737 21.537 25.1263 21.0997 25.6421C19.9335 26.6737 18.8039 27.6684 17.6377 28.7C17.6742 30.2474 17.7106 31.7947 17.7835 33.3421C17.164 33.4895 16.5445 33.6737 15.925 33.8211C15.7792 34.9632 15.6334 36.1053 15.5241 37.2474C14.9775 35.8474 14.4673 34.4474 13.9207 33.0105C13.9207 32.0526 13.8842 31.0947 13.8842 30.1368C13.4834 30.5421 13.0825 30.9842 12.6452 31.3895C12.4266 31.9053 12.1715 32.3842 11.9528 32.9C11.88 31.9789 11.8071 31.0579 11.7342 30.1368C11.88 29.2526 12.0622 28.3684 12.2079 27.4842C12.4995 26.3789 12.791 25.2737 13.0825 24.1684C12.6452 24.3526 12.2079 24.5368 11.7706 24.7211C11.2969 25.0895 10.8232 25.4211 10.3494 25.7895C10.7503 24.3526 11.1876 22.9158 11.5884 21.4789C12.3173 20.3368 13.0461 19.1947 13.7749 18.0526C11.9164 19.1579 10.0579 20.2632 8.19936 21.4053C7.68917 21.8842 7.17899 22.3263 6.63237 22.8053C6.37728 23.0263 6.12219 23.2842 5.8671 23.5053C5.4298 23.9105 4.9925 24.2789 4.59164 24.6842C5.35691 23.4316 6.12219 22.1421 6.88746 20.8895C7.28832 20.2263 7.68917 19.5632 8.09003 18.9C9.65702 17.4263 11.1876 15.9895 12.7546 14.5158C12.3901 13.9263 12.0622 13.3368 11.6977 12.7105C11.224 11.4579 10.7503 10.2053 10.313 8.95263C10.4587 7 10.6045 5.04737 10.7503 3.05789C11.5155 3.5 12.2808 3.94211 13.0461 4.38421C14.5038 4.97368 15.9979 5.56316 17.4555 6.15263C19.9335 5.26842 22.4116 4.42105 24.8896 3.53684C27.149 3.61053 29.4084 3.83158 31.7042 4.05263V6.00526Z" fill="#1D1D1B"/>
<path d="M17.8313 6.07427C16.3855 5.4887 14.9036 4.90312 13.4578 4.31755C12.6988 3.87836 11.9398 3.43918 11.1807 3C11.4699 4.79333 11.7952 6.62325 12.0843 8.41658C12.8434 9.33154 13.5663 10.2465 14.3253 11.1615L13.0964 14.3821C11.5783 15.8461 10.0241 17.31 8.46988 18.7739C8.07229 19.4327 7.6747 20.0915 7.27711 20.7503C6.51807 21.9946 5.75904 23.2756 5 24.5199C5.43373 24.1173 5.86747 23.7513 6.26506 23.3488C6.51807 23.1292 6.77108 22.873 7.0241 22.6534C7.53012 22.1776 8.03614 21.7384 8.57831 21.2626C10.4217 20.1647 12.2651 19.0667 14.1084 17.9322C13.3855 19.0667 12.6627 20.2013 11.9398 21.3358C11.5422 22.7632 11.1084 24.1905 10.7108 25.6179C11.1807 25.2519 11.6506 24.9225 12.1205 24.5565C12.5542 24.3735 12.988 24.1905 13.4217 24.0075C13.1325 25.1055 12.8434 26.2034 12.5542 27.3014C12.4096 28.1798 12.2289 29.0581 12.0843 29.9365C12.1566 30.8515 12.2289 31.7664 12.3012 32.6814C12.5181 32.169 12.7711 31.6932 12.988 31.1808C13.3855 30.7783 13.7831 30.3391 14.2169 29.9365C14.2169 30.8881 14.253 31.8396 14.253 32.7912C14.7952 34.1819 15.3012 35.5727 15.8434 37C15.988 35.8654 16.1325 34.7309 16.241 33.5963C16.8554 33.4499 17.4699 33.267 18.0843 33.1206C18.0482 31.5834 18.012 30.0463 17.9398 28.5091C19.0964 27.4844 20.2169 26.4962 21.3735 25.4715C21.8072 24.9591 22.241 24.4101 22.6747 23.8977C23.7952 23.6415 24.9157 23.3854 26 23.1292C25.3133 23.4952 24.6627 23.8611 23.9759 24.2271C23.6145 24.6663 23.2892 25.1421 22.9277 25.5813C22.9277 25.5813 23.253 25.5813 23.506 25.6179C23.759 25.6545 24.2651 25.7643 24.2651 25.7643C24.2651 25.7643 23.759 25.9839 23.1446 26.24C23.5783 26.606 23.9759 26.9354 24.3373 27.2648C25.0964 27.9236 25.747 28.5823 26.6506 29.3143C26.3976 28.6555 26.1807 28.0334 25.9277 27.3746C26.3253 26.423 26.6867 25.4715 27.0843 24.5199C27.012 25.3617 26.9036 26.1668 26.8313 27.0086C27.012 27.521 27.2289 27.9968 27.4096 28.5091C27.5542 28.6189 27.7349 28.7287 27.8795 28.8385C28.3133 28.5457 28.747 28.253 29.2169 27.9968C29.7952 28.3994 30.3373 28.8019 30.9157 29.2045C31.2771 29.2411 31.6024 29.2777 31.9639 29.3143V15.0043C30.6627 14.1625 29.3614 13.3208 28.0602 12.479C27.5904 12.4424 27.1566 12.4058 26.6867 12.3692C26.1807 12.3326 25.7108 12.296 25.2048 12.2594C25.0241 12.2594 24.8795 12.2228 24.7349 12.2228C23.9398 12.1496 23.1446 12.0764 22.3494 12.0398C22.241 12.0398 22.1325 12.0032 22.0241 12.0032C21.7711 11.9666 21.4819 11.9666 21.2289 11.93C21.0482 11.93 20.9398 11.8934 20.8675 11.8934C20.8313 11.8934 20.7952 11.8934 20.759 11.8934C21.0843 11.747 21.4096 11.6006 21.7711 11.4543C21.9518 11.3811 22.2048 11.2713 22.4578 11.1615C21.988 11.1249 21.5181 11.0883 21.0482 11.0517C22.8193 10.6857 24.5904 10.3197 26.3614 9.95371C28.241 10.3929 30.1205 10.8687 31.9639 11.3079C31.8193 11.2713 31.6747 11.2347 31.5301 11.1981C31.494 11.1615 29.4699 9.99031 29.4337 9.95371L28.6024 9.44133C26.3976 9.25834 24.1566 9.07535 21.9518 8.85576C22.3494 8.67277 22.7831 8.45318 23.1807 8.27018C22.8554 8.23358 22.494 8.23358 22.1687 8.19699C23.759 7.8676 25.3494 7.53821 26.9398 7.20883C28.2771 7.46502 29.6145 7.68461 30.9518 7.9408C30.3735 7.57481 29.7952 7.20883 29.253 6.84284C27.5542 6.69645 25.8193 6.55005 24.1205 6.40366C24.1205 6.40366 24.4096 6.18407 25.0602 5.96448C26.4699 6.07427 27.9157 6.18407 29.3253 6.29386C27.6626 6.14747 25.9639 6.03767 24.3012 5.89128C25.5663 5.63509 26.7952 5.3789 28.0602 5.12271C29.3614 5.4521 30.6988 5.74489 32 6.07427V4.13455C29.759 3.91496 27.4819 3.69537 25.241 3.47578C22.7108 4.35414 20.2892 5.23251 17.8313 6.07427ZM26.253 17.7858C26.506 18.8471 26.759 19.9085 27.012 20.9699C27.2651 21.409 27.5181 21.8848 27.8072 22.324C27.1566 21.8848 26.4699 21.4456 25.8193 21.0431C24.6265 21.2626 23.4337 21.4822 22.241 21.6652C21.988 21.8848 21.7711 22.1044 21.5181 22.324C21.6988 21.9214 21.9157 21.5188 22.0964 21.1163C22.3855 20.9699 22.7108 20.8235 23 20.6771C22.0602 20.7137 21.1205 20.7137 20.1807 20.7503C19.6747 20.2379 19.1687 19.7621 18.6627 19.2497C18.4458 19.6889 18.2289 20.1647 18.012 20.6771C17.759 21.3358 17.5422 21.9214 17.3614 22.507C17.3614 22.7998 17.3614 23.056 17.3253 23.3488C17.6145 24.3003 17.9036 25.2885 18.1928 26.24C17.8313 26.8988 17.506 27.5576 17.1446 28.2164C17.2169 29.0581 17.253 29.8633 17.3253 30.7051C16.8916 30.0463 16.4578 29.3875 16.0241 28.7287C15.6265 27.2282 15.2289 25.7277 14.8675 24.2271C15.4096 22.2874 15.9518 20.3111 16.494 18.3714C16.747 18.1152 16.9639 17.859 17.2169 17.6028C16.8916 16.6146 16.5663 15.5899 16.241 14.6017C16.5301 13.9429 16.8193 13.3208 17.1084 12.662C17.6506 12.9182 18.1928 13.211 18.7349 13.4672C19.0964 13.1378 19.494 12.8084 19.8554 12.4424L19.3133 13.6868C19.747 13.8332 20.1807 13.9795 20.6145 14.1259C22.494 15.3337 24.3735 16.5414 26.253 17.7858Z" fill="#ED6928"/>
</svg>
