<svg width="24" height="24" viewBox="0 0 24 24" fill="none" xmlns="http://www.w3.org/2000/svg">
<path d="M17.7275 16.8276L11.9999 22.5552L6.27231 16.8276C5.13951 15.6948 4.36807 14.2515 4.05554 12.6803C3.74301 11.109 3.90342 9.48038 4.51649 8.0003C5.12956 6.52023 6.16776 5.25519 7.4998 4.36515C8.83183 3.47512 10.3979 3.00006 11.9999 3.00006C13.6019 3.00006 15.168 3.47512 16.5 4.36515C17.832 5.25519 18.8702 6.52023 19.4833 8.0003C20.0964 9.48038 20.2568 11.109 19.9443 12.6803C19.6317 14.2515 18.8603 15.6948 17.7275 16.8276ZM11.9999 12.9C12.4773 12.9 12.9351 12.7103 13.2727 12.3728C13.6103 12.0352 13.7999 11.5774 13.7999 11.1C13.7999 10.6226 13.6103 10.1648 13.2727 9.8272C12.9351 9.48963 12.4773 9.29999 11.9999 9.29999C11.5225 9.29999 11.0647 9.48963 10.7271 9.8272C10.3895 10.1648 10.1999 10.6226 10.1999 11.1C10.1999 11.5774 10.3895 12.0352 10.7271 12.3728C11.0647 12.7103 11.5225 12.9 11.9999 12.9Z" fill="#ED6928"/>
</svg>
