<svg width="24" height="24" viewBox="0 0 24 24" fill="none" xmlns="http://www.w3.org/2000/svg">
<path d="M20.0999 15.978V19.1604C20.1 19.3883 20.0137 19.6077 19.8583 19.7744C19.703 19.9411 19.4902 20.0427 19.2629 20.0586C18.8696 20.0856 18.5483 20.1 18.2999 20.1C10.3466 20.1 3.8999 13.6533 3.8999 5.70002C3.8999 5.45162 3.9134 5.13032 3.9413 4.73702C3.95725 4.50972 4.05883 4.29693 4.22553 4.14159C4.39223 3.98625 4.61164 3.89992 4.8395 3.90002H8.0219C8.13354 3.89991 8.24123 3.9413 8.32406 4.01614C8.40689 4.09099 8.45894 4.19395 8.4701 4.30502C8.4908 4.51202 8.5097 4.67672 8.5277 4.80182C8.70656 6.05006 9.0731 7.26407 9.6149 8.40273C9.7004 8.58273 9.6446 8.79782 9.4826 8.91302L7.5404 10.3008C8.72791 13.0678 10.933 15.2729 13.7 16.4604L15.086 14.5218C15.1427 14.4426 15.2253 14.3858 15.3195 14.3613C15.4138 14.3368 15.5136 14.3462 15.6017 14.3877C16.7402 14.9285 17.9539 15.2941 19.2017 15.4722C19.3268 15.4902 19.4915 15.51 19.6967 15.5298C19.8076 15.5412 19.9104 15.5933 19.985 15.6761C20.0597 15.759 20.1009 15.8665 20.1008 15.978H20.0999Z" fill="#ED6928"/>
</svg>
